<?xml version="1.0" encoding="utf-8"?>
<!-- Generator: Adobe Illustrator 23.0.1, SVG Export Plug-In . SVG Version: 6.00 Build 0)  -->
<svg version="1.1" id="logo" xmlns="http://www.w3.org/2000/svg" xmlns:xlink="http://www.w3.org/1999/xlink" x="0px" y="0px"
	 viewBox="0 0 400 300" style="enable-background:new 0 0 400 300;" xml:space="preserve">
<style type="text/css">
	.st0{fill:#007DB8;}
</style>
<path id="logo_1_" class="st0" d="M190.3,115.5L155.7,142c-3.5-13.3-15.1-23-29.2-23h-24.8v61.1h24.8c14.2,0,26.6-9.7,29.2-23
	l34.5,26.6l34.5-26.6v23h39v-12.4h-25.7V119h-14.2v23l-32.8,26.6l-7.1-6.2L200,150l16.8-13.3l-9.7-8l-32.8,25.7l-7.1-6.2l32.8-24.8
	L190.3,115.5L190.3,115.5z M115,131.4h10.6c2.2,0,4.4,0.5,6.4,1.4c2,0.9,3.8,2.2,5.4,3.9c1.5,1.7,2.8,3.6,3.7,5.9
	c0.9,2.2,1.4,4.7,1.4,7.4c0,2.4-0.4,4.8-1.3,7c-0.8,2.2-2,4.2-3.5,5.9c-1.5,1.7-3.3,3.1-5.3,4.1c-2,1-4.3,1.5-6.7,1.5H115L115,131.4
	L115,131.4z M308,167.7v12.4h-39V119h14.2v48.7L308,167.7L308,167.7z M200,11C123.9,11,61,73.9,61,150s62,139,139,139
	s139-62,139-139S276.1,11,200,11z M200,25.2c8.6,0,17.1,0.9,25.2,2.5c8.1,1.7,16,4.1,23.5,7.3c7.5,3.2,14.6,7,21.2,11.5
	c6.6,4.5,12.8,9.6,18.5,15.2c5.6,5.6,10.7,11.8,15.2,18.5c4.5,6.6,8.3,13.7,11.5,21.2c3.2,7.5,5.6,15.3,7.3,23.5
	c1.7,8.1,2.5,16.6,2.5,25.2s-0.9,17.1-2.5,25.2c-1.7,8.1-4.1,16-7.3,23.5c-3.2,7.5-7,14.6-11.5,21.2c-4.5,6.6-9.6,12.8-15.2,18.5
	c-5.6,5.6-11.8,10.7-18.5,15.2c-6.6,4.5-13.7,8.3-21.2,11.5c-7.5,3.2-15.3,5.6-23.5,7.3c-8.1,1.7-16.6,2.5-25.2,2.5
	s-17.1-0.9-25.2-2.5c-8.1-1.6-16-4.1-23.5-7.3c-7.5-3.2-14.6-7-21.2-11.5c-6.6-4.5-12.8-9.6-18.5-15.2c-5.6-5.6-10.7-11.8-15.2-18.5
	c-4.5-6.6-8.3-13.7-11.5-21.2c-3.2-7.5-5.6-15.3-7.3-23.5c-1.7-8.1-2.5-16.6-2.5-25.2c0-8.6,0.9-17.1,2.5-25.2
	c1.7-8.1,4.1-16,7.3-23.5c3.2-7.5,7-14.6,11.5-21.2c4.5-6.6,9.6-12.8,15.2-18.5c5.6-5.6,11.8-10.7,18.5-15.2
	c6.6-4.5,13.7-8.3,21.2-11.5c7.5-3.2,15.3-5.6,23.5-7.3C182.9,26,191.4,25.2,200,25.2L200,25.2z"/>
</svg>
