<?xml version="1.0" encoding="utf-8"?>
<!-- Generator: Adobe Illustrator 23.0.3, SVG Export Plug-In . SVG Version: 6.00 Build 0)  -->
<svg version="1.1"
	 id="logosvg.com" xmlns:cc="http://creativecommons.org/ns#" xmlns:dc="http://purl.org/dc/elements/1.1/" xmlns:rdf="http://www.w3.org/1999/02/22-rdf-syntax-ns#" xmlns:svg="http://www.w3.org/2000/svg"
	 xmlns="http://www.w3.org/2000/svg" xmlns:xlink="http://www.w3.org/1999/xlink" x="0px" y="0px" viewBox="0 0 528 168"
	 style="enable-background:new 0 0 528 168;" xml:space="preserve">
<style type="text/css">
	.st0{fill:#D22A36;}
</style>
<path id="logosvg.com_1_" transform="matrix(0.99999729,0,0,0.99999729,-301.71319,-335.9991)" class="st0" d="M389.8,487.4
	l-7.5-19.4l72.7,3.7l-3.3,31L389.8,487.4z M407.2,337.2l-101.8,48.1l15.7,72.4h20.8l-3.6-51.8l3.2-1l12.5,52.8h21.6l-0.8-63.1l3.2-1
	l10.9,64.1h22.8l5.4-76.3l3.2-1l5.7,77.2h30.2l10.6-106L407.2,337.2z M721.5,494.9l-0.2-6l20.9-0.2l0.2-6.6l-21.3-0.3l-0.2-6.1
	l28.1-0.7l0.2-7.2h-37.9l-1.1,35.1h39.7l-0.3-7.2L721.5,494.9z M532.4,482l-0.4,6.6l10.5,0.4l-0.1,6.7l-22.1-0.6l1-19.2l30.3-0.7
	l-0.4-7.2H512l-3.5,35.1h44.7l-1.2-21.2L532.4,482z M809.1,484.7l-29-4.9l0.1-3.8l27.7-1l-0.7-7.2h-35.6l-1.8,18.2l29.5,5.1l0.1,3.3
	l-30.6,1.2l-0.8,7.2h42.9L809.1,484.7z M690.9,502.8l-3.5-35.1h-10.1l-14.5,16.7l-14.5-16.7h-10.1l-3.5,35.1h11.9l1.1-22.8
	l15.1,15.5l15.1-15.5l1.1,22.8H690.9z M641.1,339.3h-23.7l-2.2,108.5h28.7L641.1,339.3z M714.6,424.2l-26.2,0.8l-0.9-63.8l27.4,0.8
	L714.6,424.2z M737.5,339.4h-74l-2.9,108.4h82.1L737.5,339.4z M826,363.1l-2.6-23.7h-72.9l0.6,21.1l23.3,0.8l2.4,86.5h28.7
	l-8.6-85.7L826,363.1z M544.2,361.5l22.9-0.8l2.6,21.6l-26.4,12.5L544.2,361.5z M570.9,447.8h31.1l-20.3-48.7l16.2-8.8l-11.1-50.9
	h-79.5l-2.6,23.5l17.8-0.6l-8.6,85.5h27.8l0.8-27.3l20.1-11L570.9,447.8z M586.1,487l2.4-11.5l11.6-0.5l2.4,11.5L586.1,487z
	 M605.9,502.8h12l-9.5-35.1h-28.2l-9.5,35.1h12l1.9-8.8l19.5,0.3L605.9,502.8z"/>
</svg>
