<?xml version="1.0" encoding="utf-8"?>
<!-- Generator: Adobe Illustrator 14.0.0, SVG Export Plug-In . SVG Version: 6.00 Build 43363)  -->
<!DOCTYPE svg PUBLIC "-//W3C//DTD SVG 1.1//EN" "http://www.w3.org/Graphics/SVG/1.1/DTD/svg11.dtd">
<svg version="1.1"
	 id="twitter" xmlns:dc="http://purl.org/dc/elements/1.1/" xmlns:cc="http://creativecommons.org/ns#" xmlns:rdf="http://www.w3.org/1999/02/22-rdf-syntax-ns#"
	 xmlns="http://www.w3.org/2000/svg" xmlns:xlink="http://www.w3.org/1999/xlink" x="0px" y="0px" width="400px" height="300px"
	 viewBox="0 0 400 300" enable-background="new 0 0 400 300" xml:space="preserve">
<path id="twitter_1_" fill="#1DA1F2" d="M153.738,248.151c92.082,0,142.438-76.285,142.438-142.438c0-2.167-0.045-4.324-0.142-6.471
	c9.774-7.066,18.271-15.885,24.972-25.923c-8.97,3.987-18.623,6.671-28.749,7.882c10.336-6.198,18.271-16.002,22.015-27.689
	c-9.672,5.734-20.383,9.901-31.788,12.151c-9.136-9.73-22.142-15.816-36.543-15.816c-27.646,0-50.063,22.419-50.063,50.054
	c0,3.928,0.438,7.75,1.298,11.415c-41.607-2.095-78.503-22.016-103.193-52.306c-4.299,7.398-6.778,15.992-6.778,25.162
	c0,17.368,8.838,32.7,22.278,41.67c-8.213-0.253-15.93-2.508-22.673-6.261c-0.008,0.21-0.008,0.415-0.008,0.639
	c0,24.245,17.257,44.487,40.162,49.074c-4.207,1.147-8.632,1.762-13.2,1.762c-3.222,0-6.358-0.315-9.409-0.901
	c6.374,19.891,24.854,34.364,46.766,34.771c-17.134,13.43-38.718,21.428-62.176,21.428c-4.037,0-8.023-0.229-11.941-0.691
	c22.155,14.201,48.463,22.486,76.739,22.486"/>
</svg>
